# AST/ASF file generated using VICON BodyLanguage
# -----------------------------------------------
:version 1.10
:name VICON
:units
  mass 1.0
  length 0.45
  angle deg
:documentation
   .ast/.asf automatically generated from VICON data using
   VICON BodyBuilder and BodyLanguage model FoxedUp or BRILLIANT.MOD
:root
   order TX TY TZ RX RY RZ
   axis XYZ
   position 0 0 0  
   orientation 0 0 0 
:bonedata
  begin
     id 1 
     name lhipjoint
     direction 0.690799 -0.707083 0.151096 
     length 2.54797 
     axis 0 0 0  XYZ
  end
  begin
     id 2 
     name lfemur
     direction 0.34202 -0.939693 0  
     length 7.21646  
     axis 0 0 20  XYZ
    dof rx ry rz
    limits (-160.0 20.0)
           (-70.0 70.0)
           (-60.0 70.0)
  end
  begin
     id 3 
     name ltibia
     direction 0.34202 -0.939693 0   
     length 8.16759   
     axis 0 0 20   XYZ
    dof rx
    limits (-10.0 170.0)
  end
  begin
     id 4 
     name lfoot
     direction 0.0487203 -0.133858 0.989802   
     length 1.93375   
     axis -90 7.62852e-016 20   XYZ
    dof rx rz
    limits (-45.0 90.0)
           (-70.0 20.0)
  end
  begin
     id 5 
     name ltoes
     direction 1.53453e-011 -4.21783e-011 1   
     length 0.979747   
     axis -90 7.62852e-016 20   XYZ
    dof rx
    limits (-90.0 20.0)
  end
  begin
     id 6 
     name rhipjoint
     direction -0.694693 -0.703425 0.150315   
     length 2.56122  
     axis 0 0 0  XYZ 
  end
  begin
     id 7 
     name rfemur
     direction -0.34202 -0.939693 0   
     length 7.36786   
     axis 0 0 -20   XYZ
    dof rx ry rz
    limits (-160.0 20.0)
           (-70.0 70.0)
           (-70.0 60.0)
  end
  begin
     id 8 
     name rtibia
     direction -0.34202 -0.939693 0   
     length 8.07288   
     axis 0 0 -20   XYZ
    dof rx
    limits (-10.0 170.0)
 end
 begin
     id 9 
     name rfoot
     direction -0.0428397 -0.117701 0.992125   
     length 1.88295  
     axis -90 -7.62852e-016 -20   XYZ
    dof rx rz
    limits (-45.0 90.0)
           (-20.0 70.0)
  end
  begin
     id 10 
     name rtoes
     direction -1.53456e-011 -4.2187e-011 1   
     length 0.955578   
     axis -90 -7.62852e-016 -20   XYZ
    dof rx
    limits (-90.0 20.0)
  end
  begin
     id 11 
     name lowerback
     direction 0.0288145 0.999398 -0.0193241   
     length 1.92149   
     axis 0 0 0   XYZ
    dof rx ry rz
    limits (-20.0 45.0)
           (-30.0 30.0)
           (-30.0 30.0)
  end
  begin
     id 12 
     name upperback
     direction 0.0233784 0.998099 0.0570278   
     length 1.90435   
     axis 0 0 0   XYZ
    dof rx ry rz
    limits (-20.0 45.0)
           (-30.0 30.0)
           (-30.0 30.0)
  end
  begin
     id 13 
     name thorax
     direction 0.0096694 0.997833 0.0650817   
     length 1.9111   
     axis 0 0 0   XYZ
    dof rx ry rz
    limits (-20.0 45.0)
           (-30.0 30.0)
           (-30.0 30.0)
  end
  begin
     id 14 
     name lowerneck
     direction 0.00516803 0.999916 0.0118722   
     length 1.74664   
     axis 0 0 0   XYZ
    dof rx ry rz
    limits (-20.0 45.0)
           (-30.0 30.0)
           (-30.0 30.0)
  end
  begin
     id 15 
     name upperneck
     direction -0.0510851 0.996117 -0.071696   
     length 1.68498   
     axis 0 0 0   XYZ
    dof rx ry rz
    limits (-20.0 45.0)
           (-30.0 30.0)
           (-30.0 30.0)
  end
  begin
     id 16
     name head
     direction -0.019188 0.999436 -0.0275702  
     length 1.83483  
     axis 0 0 0   XYZ
    dof rx ry rz
    limits (-20.0 45.0)
           (-30.0 30.0)
           (-30.0 30.0)
  end
  begin
     id 17 
     name lclavicle
     direction 0.967006 0.248456 -0.0562957  
     length 3.39395  
     axis 0 0 0   XYZ
    dof ry rz
    limits (-20.0 10.0)
           (0.0 20.0)
  end
  begin
     id 18 
     name lhumerus
     direction 1 -4.48962e-011 -5.62711e-019   
     length 5.24318   
     axis 180 -30 -90   XYZ
    dof rx ry rz
    limits (-60.0 90.0)
           (-90.0 90.0)
           (-90.0 90.0)
  end
  begin
     id 19
     name lradius
     direction 1 -4.48966e-011 7.90625e-027   
     length 2.98999   
     axis 180 -30 -90   XYZ
    dof rx
    limits (-10.0 170.0)
  end
  begin
     id 20
     name lwrist
     direction 1 -4.48959e-011 1.61068e-026   
     length 1.49499   
     axis -9.31229e-015 90 90   XYZ
    dof ry
    limits (-180.0 0.0)
 end
  begin
     id 21 
     name lhand
     direction 1 -4.49017e-011 3.22136e-026   
     length 0.726745   
     axis -2.0555e-014 90 90   XYZ
    dof rx rz
    limits (-90.0 90.0)
           (-45.0 45.0)
  end
  begin
     id 22 
     name lfingers
     direction 1 -4.4898e-011 6.44272e-026   
     length 0.58592   
     axis -4.11101e-014 90 90   XYZ
    dof rx
    limits (0.0 90.0)
  end
  begin
     id 23
     name lthumb
     direction 0.707107 -6.34922e-011 0.707107   
     length 0.841268   
     axis -90 45 2.85299e-015   XYZ
    dof rx rz
    limits (-45.0 45.0)
           (-45.0 45.0)
  end
  begin
     id 24 
     name rclavicle
     direction -0.972232 0.230238 0.0419005   
     length 3.40416  
     axis 0 0 0   XYZ 
    dof ry rz
    limits (-10.0 20.0)
           (-20.0 0.0)
  end
  begin
     id 25 
     name rhumerus
     direction -1 -4.48976e-011 2.48487e-027  
     length 5.37045   
     axis 180 30 90   XYZ
    dof rx ry rz
    limits (-90.0 60.0)
           (-90.0 90.0)
           (-90.0 90.0)
  end
  begin
     id 26 
     name rradius
     direction -1 -4.48942e-011 7.87951e-027   
     length 2.92792   
     axis 180 30 90   XYZ
    dof rx
    limits (-10.0 170.0)
  end
  begin
     id 27 
     name rwrist
     direction -1 -4.48969e-011 1.61068e-026   
     length 1.46396   
     axis -9.31229e-015 -90 -90   XYZ
    dof ry
    limits (-180.0 0.0)
  end
  begin
     id 28
     name rhand
     direction -1 -4.49043e-011 3.22136e-026   
     length 0.784497   
     axis -2.0555e-014 -90 -90   XYZ
    dof rx rz
    limits (-90.0 90.0)
           (-45.0 45.0)
  end
  begin
     id 29
     name rfingers
     direction -1 -4.48823e-011 6.44272e-026   
     length 0.632482   
     axis -4.11101e-014 -90 -90   XYZ
    dof rx
    limits (0.0 90.0)
  end
  begin
     id 30
     name rthumb
     direction -0.707107 -6.34923e-011 0.707107   
     length 0.908121   
     axis -90 -45 -2.85299e-015   XYZ
    dof rx rz
    limits (-45.0 45.0)
           (-45.0 45.0)
  end
:hierarchy
  begin
    root lhipjoint rhipjoint lowerback
    lhipjoint lfemur
    lfemur ltibia
    ltibia lfoot
    lfoot ltoes
    rhipjoint rfemur
    rfemur rtibia
    rtibia rfoot
    rfoot rtoes
    lowerback upperback
    upperback thorax
    thorax lowerneck lclavicle rclavicle
    lowerneck upperneck
    upperneck head
    lclavicle lhumerus
    lhumerus lradius
    lradius lwrist
    lwrist lhand lthumb
    lhand lfingers
    rclavicle rhumerus
    rhumerus rradius
    rradius rwrist
    rwrist rhand rthumb
    rhand rfingers
  end

#!OML:ASF E:\Style6\Style6.ASF
:FULLY-SPECIFIED
:DEGREES
639
root 0.469424 16.3463 0.439062 -15.1144 -3.01045 1.1955
lowerback 10.3045 -1.52444 5.4722
upperback 13.4353 -1.96653 2.20277
thorax 8.49064 -0.626436 -0.642167
lowerneck 9.99525 6.78593 5.54709
upperneck -14.5859 7.99654 -14.7588
head -5.13771 4.75007 -6.1254
rclavicle -3.18055e-015 1.27222e-014
rhumerus -45.9631 35.4089 -80.1347
rradius 125.894
rwrist -6.34806
rhand 39.408 4.96121
rfingers 7.12502
rthumb 61.9027 -6.65331
lclavicle -3.18055e-015 1.27222e-014
lhumerus -38.1248 -61.9696 81.3043
lradius 127.107
lwrist 36.2597
lhand 23.4366 34.4781
lfingers 7.12502
lthumb 47.7221 56.8196
rfemur -10.5848 -10.1319 12.6884
rtibia 57.0252
rfoot -23.2938 0.266497
rtoes -20.9538
lfemur -6.99188 10.0361 -15.7109
ltibia 56.0429
lfoot -25.0622 3.43278
ltoes -26.9634
640
root 0.46647 16.3424 0.429704 -15.1315 -2.9427 0.981762
lowerback 10.3785 -1.49742 5.71289
upperback 13.4684 -1.91282 2.18037
thorax 8.48732 -0.575376 -0.798947
lowerneck 10.2651 7.07503 5.37338
upperneck -14.7761 8.37133 -14.6562
head -5.21568 4.94755 -6.1037
rclavicle -7.95139e-016 1.27222e-014
rhumerus -45.4841 34.7246 -80.3183
rradius 126.104
rwrist -4.96072
rhand 38.9448 4.92991
rfingers 7.12502
rthumb 61.5148 -7.15524
lclavicle -7.95139e-016 1.27222e-014
lhumerus -37.4729 -61.9648 81.2212
lradius 127.306
lwrist 36.2671
lhand 22.941 34.6032
lfingers 7.12502
lthumb 47.2643 57.1521
rfemur -10.5714 -10.246 12.9222
rtibia 57.0138
rfoot -23.264 0.32849
rtoes -20.4237
lfemur -7.09143 9.96265 -15.4739
ltibia 56.151
lfoot -25.0244 3.64465
ltoes -27.8753
641
root 0.461821 16.3401 0.422372 -15.2248 -3.05754 0.713425
lowerback 10.5205 -1.40463 6.0037
upperback 13.5352 -1.76617 2.16238
thorax 8.49148 -0.473185 -0.980449
lowerneck 10.4382 7.32531 5.42984
upperneck -14.906 8.71311 -14.7096
head -5.24264 5.12428 -6.15943
rclavicle -3.97569e-016 1.59028e-015
rhumerus -45.0509 34.0855 -80.6003
rradius 126.356
rwrist -3.60942
rhand 38.5476 4.70953
rfingers 7.12502
rthumb 61.1806 -7.76859
lclavicle -3.97569e-016 1.59028e-015
lhumerus -36.8449 -62.0016 81.0903
lradius 127.558
lwrist 36.2723
lhand 22.6974 34.7059
lfingers 7.12502
lthumb 47.0391 57.3548
rfemur -10.4811 -10.1991 13.2589
rtibia 56.9836
rfoot -23.2334 0.371022
rtoes -20.0319
lfemur -7.03631 10.058 -15.0872
ltibia 56.2549
lfoot -25.041 3.73719
ltoes -28.4105
642
root 0.454388 16.3359 0.41427 -15.3344 -3.32368 0.689095
lowerback 10.7157 -1.23139 6.00229
upperback 13.6037 -1.52017 2.11044
thorax 8.47461 -0.346783 -1.03981
lowerneck 10.5352 7.56978 5.47696
upperneck -14.9949 9.04497 -14.7793
head -5.24411 5.29491 -6.21205
rclavicle -1.82882e-014 0
rhumerus -44.6651 33.613 -80.9209
rradius 126.645
rwrist -2.16153
rhand 37.9615 4.50617
rfingers 7.12502
rthumb 60.6849 -8.5344
lclavicle -1.82882e-014 0
lhumerus -36.346 -61.9671 81.0271
lradius 127.838
lwrist 36.2247
lhand 22.3287 34.6158
lfingers 7.12502
lthumb 46.6979 57.414
rfemur -10.4616 -9.99911 13.3746
rtibia 56.9779
rfoot -23.1426 0.287301
rtoes -20.3226
lfemur -6.90371 10.3212 -14.9115
ltibia 56.3246
lfoot -25.1081 3.71884
ltoes -28.2579
643
root 0.448964 16.3333 0.407551 -15.3268 -3.35354 0.595962
lowerback 10.7736 -1.17259 6.05152
upperback 13.6122 -1.43295 2.08548
thorax 8.45681 -0.29722 -1.09579
lowerneck 10.7176 7.80509 5.39935
upperneck -15.1538 9.34165 -14.8231
head -5.29391 5.45658 -6.24426
rclavicle -2.38542e-014 -3.18055e-015
rhumerus -44.3669 33.4597 -81.299
rradius 126.916
rwrist -0.709295
rhand 37.0973 4.28001
rfingers 7.12502
rthumb 59.9486 -9.55418
lclavicle -2.38542e-014 -3.18055e-015
lhumerus -36.0557 -61.7966 81.1359
lradius 128.116
lwrist 36.2216
lhand 21.75 34.4996
lfingers 7.12502
lthumb 46.1618 57.5265
rfemur -10.4871 -10.0036 13.5096
rtibia 56.961
rfoot -23.0953 0.262591
rtoes -20.3683
lfemur -6.96574 10.3558 -14.766
ltibia 56.3926
lfoot -25.1592 3.66789
ltoes -28.1069
